#!OML:ASF F:\VICON\USERDATA\INSTALL\rory3\rory3.ASF
:FULLY-SPECIFIED
:DEGREES
103
root -0.48078950940306486 17.808087895265164 29.456095220095918 2.9537483265403095 -4.97717583761941 -3.568169177160601
lfemur -6.603793849437549 4.24383441228057 -15.255369227258235
ltibia 64.72244460446791
lfoot 33.38581044447198 -20.070954098892315
ltoes -9.451975807806662
rfemur -33.319131514159714 4.2499526739241436 33.263454170077765
rtibia 6.4433953135325766
rfoot -6.426464115283883 -2.3539789600645857
rtoes 1.408891069548694
lowerback 1.0 -0.9645480268989786 1.2532395901644586
upperback 0.14868575722885413 0.577306635484619 2.4267705933688415
thorax -7.957533418140774 0.1359293155049931 2.092685806829299
lowerneck -19.79020891393221 -1.8962131175136472 -1.9918368335695473
upperneck 10.20823675583799 -3.2334310840970346 0.5185224350100333
head 6.493084920829372 -1.364685054433104 0.13354605425749178
lclavicle -4.224948787554334e-15 -1.4316988955788775e-14
lhumerus -48.4453002881576 -14.21569336559682 97.74680540774008
lradius 109.1089819638144
lwrist 47.42275640208135
lhand -33.45511384974022 9.668840133363037
lfingers nan
lthumb -8.014292446173304 39.50858698284368
rclavicle 2.086975990339911e-15 -1.155765179093944e-14
rhumerus -52.97919441484308 3.8044274373774476 -92.6454662922661
rradius 119.76237739469701
rwrist -4.302830252097776
rhand -24.956119288726022 1.0
rfingers nan
rthumb 1.8692439439215116 12.802160930163993
104
root -0.5027594235724767 17.75842933435432 29.376656363999913 3.337376021451644 -4.67867030417027 -4.660398190823287
lfemur -8.974254839230428 4.820175768837968 -13.090483434035201
ltibia 67.27702777369136
lfoot 30.604075691688408 -21.15470361923102
ltoes -9.542428261183407
rfemur -32.078921407672894 5.69200778996427 34.778995660815625
rtibia 7.989192518781898
rfoot -8.582619393684144 -4.460362793561964
rtoes -0.028765239804451337
lowerback 1.0 -1.0164228931579065 2.2118412294677956
upperback 0.16506290374898425 0.769594299930764 2.7788157486055285
thorax -7.659408399272549 0.17302385937671166 1.8532777700253984
lowerneck -20.363767049783704 -1.9123810147169955 -1.8058972978371215
upperneck 10.19176033029223 -3.270692100433721 0.2978049422563438
head 6.540818530344349 -1.3985701062166702 0.008429753681445051
lclavicle 1.405506764281853e-14 7.224441207396286e-15
lhumerus -49.1747354193714 -14.234724052335537 97.86218236082406
lradius 108.35217726087937
lwrist 47.133701403675076
lhand -33.21939670350113 4.803491976104923
lfingers nan
lthumb -7.780456495065323 34.56129632413142
rclavicle 2.0648059638281105e-14 1.0079295764762016e-14
rhumerus -51.69328735331946 4.2653365757827215 -92.91501056037716
rradius 119.44373828581337
rwrist -5.752871634927224
rhand -24.74695621779912 1.0
rfingers nan
rthumb 2.082414025802505 12.57667906002844
105
root -0.5203698110741467 17.720529800192168 29.35703248982309 3.3052172302570084 -4.015218282332585 -5.293556693563209
lfemur -11.36767255860519 5.095951118076367 -11.395686281597465
ltibia 69.46410724582555
lfoot 27.616756332668718 -21.977306964826703
ltoes -8.371229572421631
rfemur -30.67191900112563 6.558323466652484 35.853831410758815
rtibia 9.07835152913821
rfoot -10.523109688044398 -6.285248752947133
rtoes -1.5824708139320074
lowerback 1.0 -1.1720265175018272 2.764067186797109
upperback 0.10305859235701298 0.7863783007475571 3.062105569827002
thorax -8.046606953462089 0.14061430175856765 1.760741537593148
lowerneck -20.383348244422404 -1.8678212727463124 -1.819654714109658
upperneck 10.262339384679114 -3.2341720115501564 0.32181329606233966
head 6.564061672953459 -1.373515213820781 0.019208633965531408
lclavicle -3.1462741522187594e-15 -1.1699627615820024e-14
lhumerus -50.13888509272756 -14.112338496082272 97.9683437242316
lradius 107.81675522161537
lwrist 46.84381360411238
lhand -33.89679704254173 0.3817749125800378
lfingers nan
lthumb -8.464295301001854 30.099505770148962
rclavicle 3.673015489003165e-15 -8.609442696791758e-15
rhumerus -50.484829790004085 4.863446566447229 -93.1762732329824
rradius 119.25131655728207
rwrist -5.6597778928227935
rhand -24.787654281322347 1.0
rfingers nan
rthumb 2.0300624632645548 11.462161101629995
106
root -0.5557909270211375 17.683253317737027 29.069377074033973 3.071726286284621 -3.414177987395565 -5.309049858373994
lfemur -13.853353818479098 5.363013020343254 -10.39132667128215
ltibia 71.15806052827324
lfoot 24.31445322720032 -22.785886000104263
ltoes -9.192997815842322
rfemur -29.28565539246241 6.975409071137329 36.26935294094126
rtibia 9.76513512229598
rfoot -12.21918688728487 -7.947990207696206
rtoes -4.058306169918671
lowerback 1.0 -1.2990554946217234 2.4507670249266935
upperback 0.009341371064794712 0.7021593373668884 3.2554142339414955
thorax -8.601396248541732 0.09143858222005324 1.9685482225143267
lowerneck -19.545797566834448 -1.8103554649453413 -2.029604399831525
upperneck 9.959268524254966 -3.111315265690674 0.4193850076513539
head 6.363199778389618 -1.3220085798126526 0.11038728669776565
lclavicle 2.353687127646518e-15 -5.7706395551211465e-15
lhumerus -51.367813536174936 -13.774753121235836 98.15739277386099
lradius 107.61340656115773
lwrist 47.037891450542645
lhand -34.353337617608894 -1.018175888492475
lfingers nan
lthumb -8.906037998489603 28.734023518715613
rclavicle 9.415121392712181e-15 -2.543596372239044e-15
rhumerus -49.529567120438585 5.553126041887435 -93.3711452661891
rradius 119.59200048532918
rwrist -4.28510941833788
rhand -24.19304175565321 1.0
rfingers nan
rthumb 2.58691843582292 11.26614588479749
107
root -0.5933232657708998 17.65799547582393 29.023585565845448 3.1646489540126392 -3.201666250837282 -5.40538375753232
lfemur -16.57352573463655 5.8948254445801025 -9.510908553748612
ltibia 72.45881891901045
lfoot 22.140452852766888 -22.6132473642219
ltoes -7.077391090308032
rfemur -27.960668960155374 7.368811295904883 36.6944303073027
rtibia 9.983136965538726
rfoot -14.099271377478079 -9.066699859599643
rtoes -6.334433710258891
lowerback 1.0 -1.3183587282529527 2.153850698562885
upperback -0.08172659838561758 0.7208295737638863 3.3926623618134912
thorax -8.340320836178705 0.08372963891884311 2.1221492240401196
lowerneck -18.39326137348861 -1.8486424623592006 -2.2250821801942164
upperneck 9.453710292093358 -3.1143535108201426 0.37847795496667525
head 6.054660545024308 -1.3360112835471871 0.14318883604287913
lclavicle 2.397009546873905e-14 8.295799864469948e-15
lhumerus -52.705707338185036 -13.572883957384208 98.42209655591606
lradius 107.61788892271439
lwrist 47.326307666730706
lhand -34.04145469038906 2.8904600641335145
lfingers nan
lthumb -8.53621158672818 32.73044539281079
rclavicle 3.136420522424167e-14 1.1826781847293786e-14
rhumerus -49.009993696752574 5.826913221456458 -93.39825642183172
rradius 120.64416439806364
rwrist -2.237865204619279
rhand -22.203146683545413 1.0
rfingers nan
rthumb 4.522492135371543 12.399274146425867
108
root -0.6079761484183664 17.651270964437067 28.801639049201576 3.6119625233975556 -3.2318784076721334 -5.333280140574633
lfemur -19.404830420382744 6.660350506966596 -9.167339828821353
ltibia 73.2671118721149
lfoot 20.14938929424269 -21.97460043741826
ltoes -3.5734378184579443
rfemur -26.566810853883467 7.660143077259504 36.78765971861086
rtibia 9.705129261803279
rfoot -15.870682424923391 -10.130216643019818
rtoes -7.327115337777581
lowerback 1.0 -1.191107826978651 1.8044143908439803
upperback -0.03227105886730541 0.8110058433137014 3.4376930608508074
thorax -6.629001751734625 0.10707793601652832 2.149384028449246
lowerneck -18.143756447282723 -1.882684820887492 -2.307992076238286
upperneck 9.631907879769471 -3.1238924889509763 0.17634107550171052
head 6.071162973240989 -1.364088404337881 0.09451346571272656
lclavicle 2.1721230254056284e-14 -1.0361105806451818e-14
lhumerus -53.78013636855177 -13.518078884854253 98.61339762577839
lradius 107.76905755126333
lwrist 47.31644779968877
lhand -34.01314083097575 6.192520163541511
lfingers nan
lthumb -8.506036705519108 36.06634277920341
rclavicle 2.945687204610136e-14 -6.541146474784517e-15
rhumerus -48.56965218729272 5.8358086166836385 -93.22513114161455
rradius 121.73540506870715
rwrist -0.533004387986507
rhand -20.72825840206636 1.0
rfingers nan
rthumb 5.9544251785423405 12.356433481083165
109
root -0.5911518410807993 17.647491363707598 28.719353871893148 3.702079204796289 -2.914599389048276 -4.94768961710586
lfemur -22.15080805677365 7.035263399178593 -9.707474570056629
ltibia 73.56967560853093
lfoot 17.065694550554557 -20.495943901804168
ltoes -2.8915150590191763
rfemur -24.674064422898272 7.3009302685424196 36.262041780142134
rtibia 8.936175287502373
rfoot -16.770099009352297 -11.416549882613277
rtoes -5.342451249013651
lowerback 1.0 -1.1535430691995199 1.5304152771788755
upperback 0.03126814240566256 0.8136754563027313 3.3122885549789958
thorax -5.2013148526279025 0.08261600838786282 2.0365486709813365
lowerneck -18.2585389952594 -1.9008149038216735 -2.286145374227768
upperneck 10.146976091626204 -3.1131661064469998 -0.09709704432259647
head 6.230026817790156 -1.3927040843088867 -0.0021343050593406465
lclavicle 1.632865571262127e-14 -3.115106925430262e-14
lhumerus -54.73839089196921 -13.776230724644106 99.03325702785475
lradius 108.22234567462691
lwrist 48.66237625036609
lhand -33.31191128047923 5.594664759341835
lfingers nan
lthumb -7.862310444597226 35.42343332150429
rclavicle 2.3975844114683506e-14 -2.71576208247243e-14
rhumerus -48.05904020767422 5.833859433958749 -92.94815159675129
rradius 122.69141251774833
rwrist -0.7313408538461772
rhand -20.634719706772763 1.0
rfingers nan
rthumb 6.045470396781664 12.200169014017309
110
root -0.592224434232661 17.645755836179884 28.46623191757958 3.554223843162759 -1.0611889156638947 -4.49268408213664
lfemur -25.26638490421155 6.128876673137281 -10.337151925805301
ltibia 73.74905360938175
lfoot 14.784859434289025 -19.752011806178423
ltoes -6.625139879354608
rfemur -22.742252921162905 5.68111303790694 36.18516789019117
rtibia 7.7359515312910005
rfoot -17.109631376219998 -12.961413977845595
rtoes -6.191040315457066
lowerback 1.0 -1.4220667402871083 1.3639731655985514
upperback -0.330670551750368 0.47018563827127713 3.2693352700598908
thorax -6.101306075575922 -0.044648931614741205 1.9352212935427606
lowerneck -18.356093769392672 -2.029967999689674 -2.2744377524107056
upperneck 11.00451358428698 -3.231055802159529 -0.381705633049775
head 6.499304728397845 -1.4905229478854025 -0.1225090920122901
lclavicle 1.974203860923808e-14 -6.829841814962602e-15
lhumerus -55.67255471675951 -14.065713389842024 99.42263831912587
lradius 108.61519397659985
lwrist 49.002871200484805
lhand -32.67430200638575 5.283571155751839
lfingers nan
lthumb -7.247072408171455 35.16468616446757
rclavicle 2.711091771918831e-14 -2.8507179458718533e-15
rhumerus -47.80606282009477 5.710086664883662 -92.74597992783866
rradius 123.99966080896198
rwrist -2.1447264802114727
rhand -21.59570189862955 1.0
rfingers nan
rthumb 5.102316760905932 13.782983804193446
